<svg width="122" height="31" viewBox="0 0 122 31" fill="none" xmlns="http://www.w3.org/2000/svg">
  <path fill-rule="evenodd" clip-rule="evenodd" d="M1.70315 7.79538H12.9955C14.1997 7.79538 15.825 8.51553 17.1295 9.90946C18.4131 11.2809 19.3253 13.2445 19.1845 15.6392C18.9769 19.1672 16.6433 21.3751 14.5949 22.5851C13.5108 23.2255 12.1934 23.4191 10.7873 23.4191H6.80793C6.38076 23.4191 6.03447 23.7654 6.03447 24.1925C6.03447 24.6197 6.38076 24.966 6.80793 24.966H10.7873C12.3045 24.966 13.9486 24.7635 15.3816 23.917C17.6532 22.5752 20.4785 19.9833 20.7287 15.73C20.8972 12.8652 19.7985 10.4974 18.259 8.85244C16.7404 7.22991 14.7305 6.24847 12.9955 6.24847H1.54846C0.779564 6.24847 0.15625 6.87179 0.15625 7.64069V27.1316C0.15625 27.5588 0.502536 27.9051 0.929701 27.9051C1.35687 27.9051 1.70315 27.5588 1.70315 27.1316V7.79538Z" fill="#624BFF"></path>
  <path fill-rule="evenodd" clip-rule="evenodd" d="M0 3.77345C0 3.34629 0.346286 3 0.773451 3H12.2205L12.2321 3.00009C14.0915 3.02784 16.8771 3.64513 19.2802 5.41274C21.7146 7.20334 23.7148 10.1468 23.9757 14.7123C24.2187 18.964 22.6115 22.0386 20.3953 24.154C18.2025 26.2471 15.4358 27.3846 13.3209 27.8656C12.6243 28.024 11.9285 28.0598 11.2727 28.0598H3.86725C3.44009 28.0598 3.0938 27.7135 3.0938 27.2864V9.96106C3.0938 9.53389 3.44009 9.18761 3.86725 9.18761C4.29442 9.18761 4.6407 9.53389 4.6407 9.96106V26.5129H11.2727C11.879 26.5129 12.4438 26.4787 12.9779 26.3572C14.898 25.9205 17.3873 24.8868 19.3272 23.035C21.2439 21.2055 22.6462 18.5615 22.4313 14.8006C22.1972 10.7034 20.4333 8.1812 18.3636 6.65885C16.2652 5.11533 13.81 4.5719 12.2146 4.5469H0.773451C0.346286 4.5469 0 4.20062 0 3.77345Z" fill="#624BFF"></path>
  <path fill-rule="evenodd" clip-rule="evenodd" d="M6.1875 10.4251C6.1875 9.82709 6.6723 9.34229 7.27033 9.34229H11.803L11.8494 9.34791C12.824 9.46603 14.1377 9.90254 15.2227 10.8473C16.3326 11.8137 17.1705 13.287 17.1705 15.3752C17.1705 18.982 14.5067 20.7665 12.8138 21.4237C12.1758 21.6714 11.5168 21.7175 10.9413 21.7175H7.27033C6.6723 21.7175 6.1875 21.2327 6.1875 20.6347V10.4251ZM7.7344 10.8892V20.1706H10.9413C11.4493 20.1706 11.8819 20.1261 12.254 19.9817C13.6788 19.4286 15.6236 18.0532 15.6236 15.3752C15.6236 13.7508 14.992 12.6975 14.2069 12.0139C13.4132 11.3228 12.4307 10.9854 11.7075 10.8892H7.7344Z" fill="#624BFF"></path>
  <text style="fill: rgb(51, 51, 51); font-family: &quot;Arial&quot;, sans-serif; font-size: 28px; font-weight: 700; white-space: pre;" transform="matrix(0.949972, 0, 0, 0.982434, -0.877207, 0.154776)" x="31.448" y="25.291">XCloud</text>
</svg>